<mxfile host="Electron" modified="2024-01-02T14:14:19.945Z" agent="Mozilla/5.0 (Windows NT 10.0; Win64; x64) AppleWebKit/537.36 (KHTML, like Gecko) draw.io/22.1.11 Chrome/114.0.5735.289 Electron/25.9.8 Safari/537.36" etag="qW2Oxa_jfFz32zwJWWU_" version="22.1.11" type="device">
  <diagram name="Page-1" id="vD8IL9qaMp-JboLcqt21">
    <mxGraphModel dx="3525" dy="2070" grid="1" gridSize="10" guides="1" tooltips="1" connect="1" arrows="1" fold="1" page="1" pageScale="1" pageWidth="3300" pageHeight="2339" math="0" shadow="0">
      <root>
        <mxCell id="0" />
        <mxCell id="1" parent="0" />
        <mxCell id="vt5gBoRhvvpWVHh2N91A-259" value="" style="endArrow=open;html=1;rounded=0;endFill=0;fontSize=20;exitX=0.813;exitY=0.999;exitDx=0;exitDy=0;exitPerimeter=0;fontStyle=2" parent="1" edge="1">
          <mxGeometry width="50" height="50" relative="1" as="geometry">
            <mxPoint x="1903.67" y="1672.8380000000002" as="sourcePoint" />
            <mxPoint x="1904" y="2033" as="targetPoint" />
          </mxGeometry>
        </mxCell>
        <mxCell id="vt5gBoRhvvpWVHh2N91A-136" value="&lt;blockquote style=&quot;margin: 0 0 0 40px; border: none; padding: 0px;&quot;&gt;&lt;br&gt;&lt;/blockquote&gt;" style="text;html=1;strokeColor=none;fillColor=none;align=center;verticalAlign=middle;whiteSpace=wrap;rounded=0;fontStyle=2" parent="1" vertex="1">
          <mxGeometry x="2885" y="518" width="60" height="30" as="geometry" />
        </mxCell>
        <mxCell id="vt5gBoRhvvpWVHh2N91A-138" value="&lt;font size=&quot;1&quot; face=&quot;GOST type B&quot;&gt;&lt;span style=&quot;font-size: 90px;&quot;&gt;UML диаграмма классов&amp;nbsp;&lt;/span&gt;&lt;/font&gt;" style="text;html=1;strokeColor=none;fillColor=none;align=center;verticalAlign=middle;whiteSpace=wrap;rounded=0;fontStyle=2" parent="1" vertex="1">
          <mxGeometry x="895" y="70" width="1440" height="30" as="geometry" />
        </mxCell>
        <mxCell id="vt5gBoRhvvpWVHh2N91A-144" value="&lt;font face=&quot;GOST type B&quot;&gt;ServiceProvider&lt;/font&gt;" style="swimlane;fontStyle=3;align=center;verticalAlign=top;childLayout=stackLayout;horizontal=1;startSize=40;horizontalStack=0;resizeParent=1;resizeParentMax=0;resizeLast=0;collapsible=1;marginBottom=0;whiteSpace=wrap;html=1;fontSize=20;" parent="1" vertex="1">
          <mxGeometry x="795" y="643" width="600" height="220" as="geometry" />
        </mxCell>
        <mxCell id="vt5gBoRhvvpWVHh2N91A-145" value="&lt;font face=&quot;GOST type B&quot;&gt;+ _accessToken : string&lt;br&gt;- _devSslHelper: DevHttpsConnectionHelper&amp;nbsp;&lt;br&gt;&lt;/font&gt;" style="text;strokeColor=none;fillColor=none;align=left;verticalAlign=top;spacingLeft=4;spacingRight=4;overflow=hidden;rotatable=0;points=[[0,0.5],[1,0.5]];portConstraint=eastwest;whiteSpace=wrap;html=1;fontSize=20;fontStyle=2" parent="vt5gBoRhvvpWVHh2N91A-144" vertex="1">
          <mxGeometry y="40" width="600" height="60" as="geometry" />
        </mxCell>
        <mxCell id="vt5gBoRhvvpWVHh2N91A-146" value="" style="line;strokeWidth=1;fillColor=none;align=left;verticalAlign=middle;spacingTop=-1;spacingLeft=3;spacingRight=3;rotatable=0;labelPosition=right;points=[];portConstraint=eastwest;strokeColor=inherit;fontSize=20;fontStyle=2" parent="vt5gBoRhvvpWVHh2N91A-144" vertex="1">
          <mxGeometry y="100" width="600" height="8" as="geometry" />
        </mxCell>
        <mxCell id="vt5gBoRhvvpWVHh2N91A-147" value="&lt;font face=&quot;GOST type B&quot;&gt;+ Authenticate (AuthenticateRequest): Task&amp;lt;AuthenticateResponse&amp;gt;&lt;br&gt;+ CallWebApi (string, HttpMethod, TRequest): Task&amp;lt;TResponse&amp;gt;&lt;br&gt;+ Register (RegisterRequest): Task&amp;lt;RegisterResponse&amp;gt;&lt;br&gt;+ ServiceProvider()&lt;br&gt;&lt;/font&gt;" style="text;strokeColor=none;fillColor=none;align=left;verticalAlign=top;spacingLeft=4;spacingRight=4;overflow=hidden;rotatable=0;points=[[0,0.5],[1,0.5]];portConstraint=eastwest;whiteSpace=wrap;html=1;fontSize=20;fontStyle=2" parent="vt5gBoRhvvpWVHh2N91A-144" vertex="1">
          <mxGeometry y="108" width="600" height="112" as="geometry" />
        </mxCell>
        <mxCell id="vt5gBoRhvvpWVHh2N91A-152" value="&lt;font face=&quot;GOST type B&quot;&gt;LoginPageViewModel&lt;/font&gt;" style="swimlane;fontStyle=3;align=center;verticalAlign=top;childLayout=stackLayout;horizontal=1;startSize=40;horizontalStack=0;resizeParent=1;resizeParentMax=0;resizeLast=0;collapsible=1;marginBottom=0;whiteSpace=wrap;html=1;fontSize=20;" parent="1" vertex="1">
          <mxGeometry x="345" y="1064" width="480" height="420" as="geometry" />
        </mxCell>
        <mxCell id="vt5gBoRhvvpWVHh2N91A-153" value="&lt;font face=&quot;GOST type B&quot;&gt;+ _accessToken : string&lt;br&gt;- _serviceProvider: ServiceProvider&lt;br&gt;- userName: string&lt;br&gt;- password: string&lt;br&gt;- isProcessing: bool&lt;br&gt;+ UserName: string&lt;br&gt;+ Password: string&lt;br&gt;+ IsProcessing: bool&lt;br&gt;+ LoginCommnad: ICommand&lt;br&gt;+ OpenRegisterPageCommand: ICommand&lt;br&gt;+ PropertyChanged: PropertyChangedEventHandler&lt;br&gt;&lt;/font&gt;" style="text;strokeColor=none;fillColor=none;align=left;verticalAlign=top;spacingLeft=4;spacingRight=4;overflow=hidden;rotatable=0;points=[[0,0.5],[1,0.5]];portConstraint=eastwest;whiteSpace=wrap;html=1;fontSize=20;fontStyle=2" parent="vt5gBoRhvvpWVHh2N91A-152" vertex="1">
          <mxGeometry y="40" width="480" height="280" as="geometry" />
        </mxCell>
        <mxCell id="vt5gBoRhvvpWVHh2N91A-154" value="" style="line;strokeWidth=1;fillColor=none;align=left;verticalAlign=middle;spacingTop=-1;spacingLeft=3;spacingRight=3;rotatable=0;labelPosition=right;points=[];portConstraint=eastwest;strokeColor=inherit;fontSize=20;fontStyle=2" parent="vt5gBoRhvvpWVHh2N91A-152" vertex="1">
          <mxGeometry y="320" width="480" height="8" as="geometry" />
        </mxCell>
        <mxCell id="vt5gBoRhvvpWVHh2N91A-155" value="&lt;font face=&quot;GOST type B&quot;&gt;# OnPropertyChanged (string): void&lt;br&gt;- Login(): Task&lt;br&gt;+ LoginPageViewModel (ServiceProvider)&lt;br&gt;&lt;/font&gt;" style="text;strokeColor=none;fillColor=none;align=left;verticalAlign=top;spacingLeft=4;spacingRight=4;overflow=hidden;rotatable=0;points=[[0,0.5],[1,0.5]];portConstraint=eastwest;whiteSpace=wrap;html=1;fontSize=20;fontStyle=2" parent="vt5gBoRhvvpWVHh2N91A-152" vertex="1">
          <mxGeometry y="328" width="480" height="92" as="geometry" />
        </mxCell>
        <mxCell id="vt5gBoRhvvpWVHh2N91A-156" value="&lt;font face=&quot;GOST type B&quot;&gt;DevHttpsConnectionHelper&lt;/font&gt;" style="swimlane;fontStyle=3;align=center;verticalAlign=top;childLayout=stackLayout;horizontal=1;startSize=40;horizontalStack=0;resizeParent=1;resizeParentMax=0;resizeLast=0;collapsible=1;marginBottom=0;whiteSpace=wrap;html=1;fontSize=20;" parent="1" vertex="1">
          <mxGeometry x="305" y="313" width="590" height="250" as="geometry" />
        </mxCell>
        <mxCell id="vt5gBoRhvvpWVHh2N91A-157" value="&lt;font face=&quot;GOST type B&quot;&gt;+ SslPort: int&lt;br&gt;- LazyHttpClient: Lazy&amp;lt;HttpClient&amp;gt;&lt;br&gt;+ HttpClient: HttpClient&lt;br&gt;+ DevServerName: string&lt;br&gt;+ DevServerRootUrl: string&lt;br&gt;&lt;/font&gt;" style="text;strokeColor=none;fillColor=none;align=left;verticalAlign=top;spacingLeft=4;spacingRight=4;overflow=hidden;rotatable=0;points=[[0,0.5],[1,0.5]];portConstraint=eastwest;whiteSpace=wrap;html=1;fontSize=20;fontStyle=2" parent="vt5gBoRhvvpWVHh2N91A-156" vertex="1">
          <mxGeometry y="40" width="590" height="140" as="geometry" />
        </mxCell>
        <mxCell id="vt5gBoRhvvpWVHh2N91A-158" value="" style="line;strokeWidth=1;fillColor=none;align=left;verticalAlign=middle;spacingTop=-1;spacingLeft=3;spacingRight=3;rotatable=0;labelPosition=right;points=[];portConstraint=eastwest;strokeColor=inherit;fontSize=20;fontStyle=2" parent="vt5gBoRhvvpWVHh2N91A-156" vertex="1">
          <mxGeometry y="180" width="590" height="8" as="geometry" />
        </mxCell>
        <mxCell id="vt5gBoRhvvpWVHh2N91A-159" value="&lt;font face=&quot;GOST type B&quot;&gt;+ OnPropertyChanged(): HttpMessageHandler&lt;br&gt;+ DevHttpsConnectionHelper (string)&lt;br&gt;&lt;/font&gt;" style="text;strokeColor=none;fillColor=none;align=left;verticalAlign=top;spacingLeft=4;spacingRight=4;overflow=hidden;rotatable=0;points=[[0,0.5],[1,0.5]];portConstraint=eastwest;whiteSpace=wrap;html=1;fontSize=20;fontStyle=2" parent="vt5gBoRhvvpWVHh2N91A-156" vertex="1">
          <mxGeometry y="188" width="590" height="62" as="geometry" />
        </mxCell>
        <mxCell id="vt5gBoRhvvpWVHh2N91A-160" value="&lt;font face=&quot;GOST type B&quot;&gt;ListChatPageViewModel&lt;/font&gt;" style="swimlane;fontStyle=3;align=center;verticalAlign=top;childLayout=stackLayout;horizontal=1;startSize=40;horizontalStack=0;resizeParent=1;resizeParentMax=0;resizeLast=0;collapsible=1;marginBottom=0;whiteSpace=wrap;html=1;fontSize=20;" parent="1" vertex="1">
          <mxGeometry x="795" y="1713" width="590" height="560" as="geometry" />
        </mxCell>
        <mxCell id="vt5gBoRhvvpWVHh2N91A-161" value="&lt;font face=&quot;GOST type B&quot;&gt;- _serviceProvider: ServiceProvider&lt;br&gt;- _chatHub: ChatHub&lt;br&gt;&lt;/font&gt;&lt;font face=&quot;GOST type B&quot;&gt;- userInfo: User&lt;br&gt;- userFriends: ObservableCollection&amp;lt;User&amp;gt;&lt;br&gt;- lastestMessages: ObservableCollection&amp;lt;LastestMessage&amp;gt;&lt;br&gt;- isRefreshing: bool&lt;br&gt;+ UserInfo: User&lt;br&gt;+ UserFriends: ObservableCollection&amp;lt;User&amp;gt;&lt;br&gt;+ LastestMessages: ObservableCollection&amp;lt;LastestMessage&amp;gt;&lt;br&gt;+ IsRefreshing: bool&lt;br&gt;+ RefreshCommand: ICommand&lt;br&gt;+ OpenChatPageCommand: ICommand&lt;br&gt;+ OpenMemberPageCommand: ICommand&lt;br&gt;+ PropertyChanged: PropertyChangedEventHandler&lt;br&gt;&lt;/font&gt;" style="text;strokeColor=none;fillColor=none;align=left;verticalAlign=top;spacingLeft=4;spacingRight=4;overflow=hidden;rotatable=0;points=[[0,0.5],[1,0.5]];portConstraint=eastwest;whiteSpace=wrap;html=1;fontSize=20;fontStyle=2" parent="vt5gBoRhvvpWVHh2N91A-160" vertex="1">
          <mxGeometry y="40" width="590" height="350" as="geometry" />
        </mxCell>
        <mxCell id="vt5gBoRhvvpWVHh2N91A-162" value="" style="line;strokeWidth=1;fillColor=none;align=left;verticalAlign=middle;spacingTop=-1;spacingLeft=3;spacingRight=3;rotatable=0;labelPosition=right;points=[];portConstraint=eastwest;strokeColor=inherit;fontSize=20;fontStyle=2" parent="vt5gBoRhvvpWVHh2N91A-160" vertex="1">
          <mxGeometry y="390" width="590" height="8" as="geometry" />
        </mxCell>
        <mxCell id="vt5gBoRhvvpWVHh2N91A-163" value="&lt;font face=&quot;GOST type B&quot;&gt;# OnPropertyChanged (string): void&lt;br&gt;- GetListFriends(): Task&lt;br&gt;+ Initialize(): void&lt;br&gt;+ ApplyQueryAttributes (IDictionary&amp;lt;string, object&amp;gt;): void&lt;br&gt;- OnReceiveMessage (int, string): void&lt;br&gt;&lt;font style=&quot;font-size: 20px;&quot;&gt;+ LoginPageViewModel (ServiceProvider, ChatHub)&lt;/font&gt;&lt;/font&gt;" style="text;strokeColor=none;fillColor=none;align=left;verticalAlign=top;spacingLeft=4;spacingRight=4;overflow=hidden;rotatable=0;points=[[0,0.5],[1,0.5]];portConstraint=eastwest;whiteSpace=wrap;html=1;fontSize=20;fontStyle=2" parent="vt5gBoRhvvpWVHh2N91A-160" vertex="1">
          <mxGeometry y="398" width="590" height="162" as="geometry" />
        </mxCell>
        <mxCell id="vt5gBoRhvvpWVHh2N91A-165" value="&lt;font face=&quot;GOST type B&quot;&gt;ChatHub&lt;/font&gt;" style="swimlane;fontStyle=3;align=center;verticalAlign=top;childLayout=stackLayout;horizontal=1;startSize=40;horizontalStack=0;resizeParent=1;resizeParentMax=0;resizeLast=0;collapsible=1;marginBottom=0;whiteSpace=wrap;html=1;fontSize=20;" parent="1" vertex="1">
          <mxGeometry x="2235" y="1473" width="590" height="310" as="geometry" />
        </mxCell>
        <mxCell id="vt5gBoRhvvpWVHh2N91A-166" value="&lt;font face=&quot;GOST type B&quot;&gt;- hubConnection: HubConnection&lt;br&gt;- onReceiveMessageHandler: List&amp;lt;Action&amp;lt;int, string&amp;gt;&amp;gt;&lt;br&gt;&lt;/font&gt;&lt;font face=&quot;GOST type B&quot;&gt;- _serviceProvider: ServiceProvider&lt;br&gt;&lt;/font&gt;" style="text;strokeColor=none;fillColor=none;align=left;verticalAlign=top;spacingLeft=4;spacingRight=4;overflow=hidden;rotatable=0;points=[[0,0.5],[1,0.5]];portConstraint=eastwest;whiteSpace=wrap;html=1;fontSize=20;fontStyle=2" parent="vt5gBoRhvvpWVHh2N91A-165" vertex="1">
          <mxGeometry y="40" width="590" height="80" as="geometry" />
        </mxCell>
        <mxCell id="vt5gBoRhvvpWVHh2N91A-167" value="" style="line;strokeWidth=1;fillColor=none;align=left;verticalAlign=middle;spacingTop=-1;spacingLeft=3;spacingRight=3;rotatable=0;labelPosition=right;points=[];portConstraint=eastwest;strokeColor=inherit;fontSize=20;fontStyle=2" parent="vt5gBoRhvvpWVHh2N91A-165" vertex="1">
          <mxGeometry y="120" width="590" height="8" as="geometry" />
        </mxCell>
        <mxCell id="vt5gBoRhvvpWVHh2N91A-168" value="&lt;font face=&quot;GOST type B&quot;&gt;+ Connect(): Task&lt;br&gt;+ Disconnect(): Task&lt;br&gt;+ SendMessageToUser(): Task&lt;br&gt;+ SendMessageToAll(): Task&lt;br&gt;+ AddReceivedMessageHandler (Action&amp;lt;int, string&amp;gt;): void&lt;br&gt;- OnReceiveMessage(int,int): void&lt;br&gt;+ ChatHub (ServiceProvider)&lt;br&gt;&lt;/font&gt;" style="text;strokeColor=none;fillColor=none;align=left;verticalAlign=top;spacingLeft=4;spacingRight=4;overflow=hidden;rotatable=0;points=[[0,0.5],[1,0.5]];portConstraint=eastwest;whiteSpace=wrap;html=1;fontSize=20;fontStyle=2" parent="vt5gBoRhvvpWVHh2N91A-165" vertex="1">
          <mxGeometry y="128" width="590" height="182" as="geometry" />
        </mxCell>
        <mxCell id="vt5gBoRhvvpWVHh2N91A-169" value="&lt;font face=&quot;GOST type B&quot;&gt;ChatPageViewModel&lt;/font&gt;" style="swimlane;fontStyle=3;align=center;verticalAlign=top;childLayout=stackLayout;horizontal=1;startSize=40;horizontalStack=0;resizeParent=1;resizeParentMax=0;resizeLast=0;collapsible=1;marginBottom=0;whiteSpace=wrap;html=1;fontSize=20;" parent="1" vertex="1">
          <mxGeometry x="1345" y="1063" width="590" height="610" as="geometry" />
        </mxCell>
        <mxCell id="vt5gBoRhvvpWVHh2N91A-170" value="&lt;font style=&quot;&quot; face=&quot;GOST type B&quot;&gt;- _serviceProvider: ServiceProvider&lt;br&gt;- _chatHub: ChatHub&lt;br&gt;- fromUserId: int&lt;br&gt;- toUserId: int&lt;br&gt;- friendInfo: User&lt;br&gt;- messages: ObservableCollection&amp;lt;Message&amp;gt;&lt;br&gt;- isRefreshing: bool&lt;br&gt;- message: string&lt;br&gt;+ FromUserId: int&lt;br&gt;+ ToUserId: int&lt;br&gt;+ FriendInfo: User&lt;br&gt;+ Messages: ObservableCollection&amp;lt;Message&amp;gt;&lt;br&gt;+ IsRefreshing: bool&lt;br&gt;+ Message:&amp;nbsp;string&lt;br style=&quot;border-color: var(--border-color);&quot;&gt;+ SendMessageCommand: ICommand&lt;br&gt;+ PropertyChanged: PropertyChangedEventHandler&lt;/font&gt;" style="text;strokeColor=none;fillColor=none;align=left;verticalAlign=top;spacingLeft=4;spacingRight=4;overflow=hidden;rotatable=0;points=[[0,0.5],[1,0.5]];portConstraint=eastwest;whiteSpace=wrap;html=1;fontSize=20;fontStyle=2" parent="vt5gBoRhvvpWVHh2N91A-169" vertex="1">
          <mxGeometry y="40" width="590" height="400" as="geometry" />
        </mxCell>
        <mxCell id="vt5gBoRhvvpWVHh2N91A-171" value="" style="line;strokeWidth=1;fillColor=none;align=left;verticalAlign=middle;spacingTop=-1;spacingLeft=3;spacingRight=3;rotatable=0;labelPosition=right;points=[];portConstraint=eastwest;strokeColor=inherit;fontSize=20;fontStyle=2" parent="vt5gBoRhvvpWVHh2N91A-169" vertex="1">
          <mxGeometry y="440" width="590" height="8" as="geometry" />
        </mxCell>
        <mxCell id="vt5gBoRhvvpWVHh2N91A-172" value="&lt;font face=&quot;GOST type B&quot;&gt;# OnPropertyChanged (string): void&lt;br&gt;- GetMessages(): Task&lt;br&gt;+ Initialize(): void&lt;br&gt;+ ApplyQueryAttributes (IDictionary&amp;lt;string, object&amp;gt;): void&lt;br&gt;+ OnReceiveMessage&amp;nbsp;(int, string, string): void&lt;br&gt;&lt;font style=&quot;&quot;&gt;+ ChatPageViewModel(ServiceProvider, ChatHub)&lt;/font&gt;&lt;/font&gt;" style="text;strokeColor=none;fillColor=none;align=left;verticalAlign=top;spacingLeft=4;spacingRight=4;overflow=hidden;rotatable=0;points=[[0,0.5],[1,0.5]];portConstraint=eastwest;whiteSpace=wrap;html=1;fontSize=20;fontStyle=2" parent="vt5gBoRhvvpWVHh2N91A-169" vertex="1">
          <mxGeometry y="448" width="590" height="162" as="geometry" />
        </mxCell>
        <mxCell id="vt5gBoRhvvpWVHh2N91A-183" value="&lt;font style=&quot;font-size: 20px;&quot; face=&quot;GOST type B&quot;&gt;&lt;b&gt;RegisterRequest&lt;/b&gt;&lt;/font&gt;" style="swimlane;fontStyle=2;childLayout=stackLayout;horizontal=1;startSize=40;horizontalStack=0;resizeParent=1;resizeParentMax=0;resizeLast=0;collapsible=1;marginBottom=0;whiteSpace=wrap;html=1;perimeterSpacing=5;strokeWidth=1;arcSize=15;" parent="1" vertex="1">
          <mxGeometry x="955" y="413" width="250" height="130" as="geometry" />
        </mxCell>
        <mxCell id="vt5gBoRhvvpWVHh2N91A-175" value="&lt;font face=&quot;GOST type B&quot;&gt;+ UserName: string&lt;br&gt;+ LoginId: string&lt;/font&gt;&lt;font face=&quot;GOST type B&quot;&gt;&lt;br&gt;&lt;/font&gt;&lt;font face=&quot;GOST type B&quot;&gt;+ Password: string&lt;br&gt;&lt;/font&gt;" style="text;strokeColor=none;fillColor=none;align=left;verticalAlign=top;spacingLeft=4;spacingRight=4;overflow=hidden;rotatable=0;points=[[0,0.5],[1,0.5]];portConstraint=eastwest;whiteSpace=wrap;html=1;fontSize=20;fontStyle=2" parent="vt5gBoRhvvpWVHh2N91A-183" vertex="1">
          <mxGeometry y="40" width="250" height="90" as="geometry" />
        </mxCell>
        <mxCell id="vt5gBoRhvvpWVHh2N91A-187" value="&lt;font size=&quot;1&quot; face=&quot;GOST type B&quot;&gt;&lt;b style=&quot;font-size: 20px;&quot;&gt;RegisterResponse&lt;/b&gt;&lt;/font&gt;" style="swimlane;fontStyle=2;childLayout=stackLayout;horizontal=1;startSize=40;horizontalStack=0;resizeParent=1;resizeParentMax=0;resizeLast=0;collapsible=1;marginBottom=0;whiteSpace=wrap;html=1;perimeterSpacing=5;strokeWidth=1;arcSize=15;" parent="1" vertex="1">
          <mxGeometry x="1925" y="768" width="250" height="160" as="geometry" />
        </mxCell>
        <mxCell id="vt5gBoRhvvpWVHh2N91A-188" value="&lt;font face=&quot;GOST type B&quot;&gt;+ Id: int&lt;br&gt;+ UserName: string&lt;br&gt;+ LoginId: string&lt;/font&gt;&lt;font face=&quot;GOST type B&quot;&gt;&lt;br&gt;&lt;/font&gt;&lt;font face=&quot;GOST type B&quot;&gt;+ Token: string&lt;br&gt;&lt;/font&gt;" style="text;strokeColor=none;fillColor=none;align=left;verticalAlign=top;spacingLeft=4;spacingRight=4;overflow=hidden;rotatable=0;points=[[0,0.5],[1,0.5]];portConstraint=eastwest;whiteSpace=wrap;html=1;fontSize=20;fontStyle=2" parent="vt5gBoRhvvpWVHh2N91A-187" vertex="1">
          <mxGeometry y="40" width="250" height="120" as="geometry" />
        </mxCell>
        <mxCell id="vt5gBoRhvvpWVHh2N91A-189" value="&lt;font size=&quot;1&quot; face=&quot;GOST type B&quot;&gt;&lt;b style=&quot;font-size: 20px;&quot;&gt;BaseResponse&lt;/b&gt;&lt;/font&gt;" style="swimlane;fontStyle=2;childLayout=stackLayout;horizontal=1;startSize=40;horizontalStack=0;resizeParent=1;resizeParentMax=0;resizeLast=0;collapsible=1;marginBottom=0;whiteSpace=wrap;html=1;perimeterSpacing=5;strokeWidth=1;arcSize=15;" parent="1" vertex="1">
          <mxGeometry x="2225" y="228.47" width="250" height="100" as="geometry" />
        </mxCell>
        <mxCell id="vt5gBoRhvvpWVHh2N91A-190" value="&lt;font face=&quot;GOST type B&quot;&gt;+ StatusCode: int&lt;br&gt;+ StatusMessage: string&lt;/font&gt;&lt;font face=&quot;GOST type B&quot;&gt;&lt;br&gt;&lt;/font&gt;" style="text;strokeColor=none;fillColor=none;align=left;verticalAlign=top;spacingLeft=4;spacingRight=4;overflow=hidden;rotatable=0;points=[[0,0.5],[1,0.5]];portConstraint=eastwest;whiteSpace=wrap;html=1;fontSize=20;fontStyle=2" parent="vt5gBoRhvvpWVHh2N91A-189" vertex="1">
          <mxGeometry y="40" width="250" height="60" as="geometry" />
        </mxCell>
        <mxCell id="vt5gBoRhvvpWVHh2N91A-191" value="&lt;font face=&quot;GOST type B&quot;&gt;&lt;b style=&quot;font-size: 20px;&quot;&gt;AuthenticateRequest&lt;/b&gt;&lt;/font&gt;" style="swimlane;fontStyle=2;childLayout=stackLayout;horizontal=1;startSize=40;horizontalStack=0;resizeParent=1;resizeParentMax=0;resizeLast=0;collapsible=1;marginBottom=0;whiteSpace=wrap;html=1;perimeterSpacing=5;strokeWidth=1;arcSize=15;" parent="1" vertex="1">
          <mxGeometry x="175" y="583" width="250" height="100" as="geometry" />
        </mxCell>
        <mxCell id="vt5gBoRhvvpWVHh2N91A-192" value="&lt;font face=&quot;GOST type B&quot;&gt;+ LoginId: string&lt;/font&gt;&lt;font face=&quot;GOST type B&quot;&gt;&lt;br&gt;&lt;/font&gt;&lt;font face=&quot;GOST type B&quot;&gt;+ Password: string&lt;br&gt;&lt;/font&gt;" style="text;strokeColor=none;fillColor=none;align=left;verticalAlign=top;spacingLeft=4;spacingRight=4;overflow=hidden;rotatable=0;points=[[0,0.5],[1,0.5]];portConstraint=eastwest;whiteSpace=wrap;html=1;fontSize=20;fontStyle=2" parent="vt5gBoRhvvpWVHh2N91A-191" vertex="1">
          <mxGeometry y="40" width="250" height="60" as="geometry" />
        </mxCell>
        <mxCell id="vt5gBoRhvvpWVHh2N91A-193" value="&lt;font face=&quot;GOST type B&quot;&gt;&lt;b style=&quot;font-size: 20px;&quot;&gt;AuthenticateResponse&lt;/b&gt;&lt;/font&gt;" style="swimlane;fontStyle=2;childLayout=stackLayout;horizontal=1;startSize=40;horizontalStack=0;resizeParent=1;resizeParentMax=0;resizeLast=0;collapsible=1;marginBottom=0;whiteSpace=wrap;html=1;perimeterSpacing=5;strokeWidth=1;arcSize=15;" parent="1" vertex="1">
          <mxGeometry x="1915" y="528" width="250" height="120" as="geometry" />
        </mxCell>
        <mxCell id="vt5gBoRhvvpWVHh2N91A-194" value="&lt;font face=&quot;GOST type B&quot;&gt;+ Id: int&lt;br&gt;+ UserName: string&lt;br&gt;&lt;/font&gt;&lt;font face=&quot;GOST type B&quot;&gt;+ Token: string&lt;br&gt;&lt;/font&gt;" style="text;strokeColor=none;fillColor=none;align=left;verticalAlign=top;spacingLeft=4;spacingRight=4;overflow=hidden;rotatable=0;points=[[0,0.5],[1,0.5]];portConstraint=eastwest;whiteSpace=wrap;html=1;fontSize=20;fontStyle=2" parent="vt5gBoRhvvpWVHh2N91A-193" vertex="1">
          <mxGeometry y="40" width="250" height="80" as="geometry" />
        </mxCell>
        <mxCell id="vt5gBoRhvvpWVHh2N91A-195" value="&lt;font face=&quot;GOST type B&quot;&gt;&lt;b style=&quot;font-size: 20px;&quot;&gt;Message&lt;/b&gt;&lt;/font&gt;" style="swimlane;fontStyle=2;childLayout=stackLayout;horizontal=1;startSize=40;horizontalStack=0;resizeParent=1;resizeParentMax=0;resizeLast=0;collapsible=1;marginBottom=0;whiteSpace=wrap;html=1;perimeterSpacing=5;strokeWidth=1;arcSize=15;" parent="1" vertex="1">
          <mxGeometry x="1779" y="2034" width="250" height="210" as="geometry" />
        </mxCell>
        <mxCell id="vt5gBoRhvvpWVHh2N91A-196" value="&lt;font face=&quot;GOST type B&quot;&gt;+ Id: int&lt;br&gt;+ FromUserId: int&lt;br&gt;+ ToUserId:&amp;nbsp;&lt;/font&gt;&lt;font face=&quot;GOST type B&quot;&gt;int&lt;br&gt;&lt;/font&gt;&lt;font face=&quot;GOST type B&quot;&gt;+ Content: string&lt;br&gt;+ SendDateTime: DateTime&lt;br&gt;+ IsRead: bool&lt;br&gt;&lt;/font&gt;" style="text;strokeColor=none;fillColor=none;align=left;verticalAlign=top;spacingLeft=4;spacingRight=4;overflow=hidden;rotatable=0;points=[[0,0.5],[1,0.5]];portConstraint=eastwest;whiteSpace=wrap;html=1;fontSize=20;fontStyle=2" parent="vt5gBoRhvvpWVHh2N91A-195" vertex="1">
          <mxGeometry y="40" width="250" height="170" as="geometry" />
        </mxCell>
        <mxCell id="vt5gBoRhvvpWVHh2N91A-199" value="&lt;font face=&quot;GOST type B&quot;&gt;&lt;b style=&quot;font-size: 20px;&quot;&gt;MessageInitializeRequest&lt;/b&gt;&lt;/font&gt;" style="swimlane;fontStyle=2;childLayout=stackLayout;horizontal=1;startSize=40;horizontalStack=0;resizeParent=1;resizeParentMax=0;resizeLast=0;collapsible=1;marginBottom=0;whiteSpace=wrap;html=1;perimeterSpacing=5;strokeWidth=1;arcSize=15;" parent="1" vertex="1">
          <mxGeometry x="2186" y="1133" width="250" height="100" as="geometry" />
        </mxCell>
        <mxCell id="vt5gBoRhvvpWVHh2N91A-200" value="&lt;font face=&quot;GOST type B&quot;&gt;+ FromUserId: int&lt;br&gt;+ ToUserId: int&lt;/font&gt;&lt;font face=&quot;GOST type B&quot;&gt;&lt;br&gt;&lt;/font&gt;" style="text;strokeColor=none;fillColor=none;align=left;verticalAlign=top;spacingLeft=4;spacingRight=4;overflow=hidden;rotatable=0;points=[[0,0.5],[1,0.5]];portConstraint=eastwest;whiteSpace=wrap;html=1;fontSize=20;fontStyle=2" parent="vt5gBoRhvvpWVHh2N91A-199" vertex="1">
          <mxGeometry y="40" width="250" height="60" as="geometry" />
        </mxCell>
        <mxCell id="vt5gBoRhvvpWVHh2N91A-201" value="&lt;font face=&quot;GOST type B&quot;&gt;&lt;b style=&quot;font-size: 20px;&quot;&gt;MessageInitializeResponse&lt;/b&gt;&lt;/font&gt;" style="swimlane;fontStyle=2;childLayout=stackLayout;horizontal=1;startSize=40;horizontalStack=0;resizeParent=1;resizeParentMax=0;resizeLast=0;collapsible=1;marginBottom=0;whiteSpace=wrap;html=1;perimeterSpacing=5;strokeWidth=1;arcSize=15;" parent="1" vertex="1">
          <mxGeometry x="2505" y="468" width="420" height="100" as="geometry" />
        </mxCell>
        <mxCell id="vt5gBoRhvvpWVHh2N91A-202" value="&lt;font face=&quot;GOST type B&quot;&gt;+ FriendInfo: User&lt;br&gt;+ Messages:&amp;nbsp;&lt;/font&gt;&lt;font face=&quot;GOST type B&quot;&gt;IEnumerable &amp;lt;Models.Message&amp;gt;&lt;br&gt;&lt;/font&gt;" style="text;strokeColor=none;fillColor=none;align=left;verticalAlign=top;spacingLeft=4;spacingRight=4;overflow=hidden;rotatable=0;points=[[0,0.5],[1,0.5]];portConstraint=eastwest;whiteSpace=wrap;html=1;fontSize=20;fontStyle=2" parent="vt5gBoRhvvpWVHh2N91A-201" vertex="1">
          <mxGeometry y="40" width="420" height="60" as="geometry" />
        </mxCell>
        <mxCell id="vt5gBoRhvvpWVHh2N91A-203" value="&lt;font face=&quot;GOST type B&quot;&gt;&lt;b style=&quot;font-size: 20px;&quot;&gt;User&lt;/b&gt;&lt;/font&gt;" style="swimlane;fontStyle=2;childLayout=stackLayout;horizontal=1;startSize=40;horizontalStack=0;resizeParent=1;resizeParentMax=0;resizeLast=0;collapsible=1;marginBottom=0;whiteSpace=wrap;html=1;perimeterSpacing=5;strokeWidth=1;arcSize=15;" parent="1" vertex="1">
          <mxGeometry x="1476" y="2034" width="250" height="210" as="geometry" />
        </mxCell>
        <mxCell id="vt5gBoRhvvpWVHh2N91A-204" value="&lt;font style=&quot;font-size: 20px;&quot; face=&quot;GOST type B&quot;&gt;+ Id: int&lt;br&gt;+ UserName: int&lt;br&gt;+ AvatarSourceName:&amp;nbsp;int&lt;br&gt;+ IsOnline: bool&lt;br&gt;+ LastLogonTime: DateTime&lt;br&gt;+ AwayDuration: string&lt;br style=&quot;border-color: var(--border-color);&quot;&gt;&lt;/font&gt;&lt;font face=&quot;GOST type B&quot;&gt;&lt;br&gt;&lt;/font&gt;" style="text;strokeColor=none;fillColor=none;align=left;verticalAlign=top;spacingLeft=4;spacingRight=4;overflow=hidden;rotatable=0;points=[[0,0.5],[1,0.5]];portConstraint=eastwest;whiteSpace=wrap;html=1;fontSize=20;fontStyle=2" parent="vt5gBoRhvvpWVHh2N91A-203" vertex="1">
          <mxGeometry y="40" width="250" height="170" as="geometry" />
        </mxCell>
        <mxCell id="vt5gBoRhvvpWVHh2N91A-206" value="&lt;font size=&quot;1&quot; face=&quot;GOST type B&quot;&gt;&lt;b style=&quot;font-size: 20px;&quot;&gt;LastestMessage&lt;/b&gt;&lt;/font&gt;" style="swimlane;fontStyle=2;childLayout=stackLayout;horizontal=1;startSize=40;horizontalStack=0;resizeParent=1;resizeParentMax=0;resizeLast=0;collapsible=1;marginBottom=0;whiteSpace=wrap;html=1;perimeterSpacing=5;strokeWidth=1;arcSize=15;" parent="1" vertex="1">
          <mxGeometry x="455" y="1853" width="250" height="200" as="geometry" />
        </mxCell>
        <mxCell id="vt5gBoRhvvpWVHh2N91A-207" value="&lt;font face=&quot;GOST type B&quot;&gt;+ Id: int&lt;br&gt;+ UserId: int&lt;br&gt;+ UserFriendInfo:&amp;nbsp;&lt;/font&gt;&lt;font face=&quot;GOST type B&quot;&gt;User&lt;br&gt;&lt;/font&gt;&lt;font face=&quot;GOST type B&quot;&gt;+ Content: string&lt;br&gt;+ SendDateTime: DateTime&lt;br&gt;+ IsRead: bool&lt;br&gt;&lt;/font&gt;" style="text;strokeColor=none;fillColor=none;align=left;verticalAlign=top;spacingLeft=4;spacingRight=4;overflow=hidden;rotatable=0;points=[[0,0.5],[1,0.5]];portConstraint=eastwest;whiteSpace=wrap;html=1;fontSize=20;fontStyle=2" parent="vt5gBoRhvvpWVHh2N91A-206" vertex="1">
          <mxGeometry y="40" width="250" height="160" as="geometry" />
        </mxCell>
        <mxCell id="vt5gBoRhvvpWVHh2N91A-209" value="&lt;font face=&quot;GOST type B&quot;&gt;&lt;b style=&quot;font-size: 20px;&quot;&gt;ListChatInintializeResponse&lt;/b&gt;&lt;/font&gt;" style="swimlane;fontStyle=2;childLayout=stackLayout;horizontal=1;startSize=40;horizontalStack=0;resizeParent=1;resizeParentMax=0;resizeLast=0;collapsible=1;marginBottom=0;whiteSpace=wrap;html=1;perimeterSpacing=5;strokeWidth=1;arcSize=15;" parent="1" vertex="1">
          <mxGeometry x="2515" y="708" width="440" height="130" as="geometry" />
        </mxCell>
        <mxCell id="vt5gBoRhvvpWVHh2N91A-210" value="&lt;font face=&quot;GOST type B&quot;&gt;+ User: User&lt;br&gt;+ UserFriends:&amp;nbsp;&lt;/font&gt;&lt;font face=&quot;GOST type B&quot;&gt;IEnumerable &amp;lt;User&amp;gt;&lt;br&gt;+ LastestMessages IEnumerable&amp;lt;LastestMessage&amp;gt;&lt;br&gt;&lt;/font&gt;" style="text;strokeColor=none;fillColor=none;align=left;verticalAlign=top;spacingLeft=4;spacingRight=4;overflow=hidden;rotatable=0;points=[[0,0.5],[1,0.5]];portConstraint=eastwest;whiteSpace=wrap;html=1;fontSize=20;fontStyle=2" parent="vt5gBoRhvvpWVHh2N91A-209" vertex="1">
          <mxGeometry y="40" width="440" height="90" as="geometry" />
        </mxCell>
        <mxCell id="vt5gBoRhvvpWVHh2N91A-211" value="" style="endArrow=block;endSize=16;endFill=0;html=1;rounded=0;fontSize=20;fontStyle=2" parent="1" edge="1">
          <mxGeometry width="160" relative="1" as="geometry">
            <mxPoint x="2345" y="697" as="sourcePoint" />
            <mxPoint x="2345" y="327.47" as="targetPoint" />
            <mxPoint as="offset" />
          </mxGeometry>
        </mxCell>
        <mxCell id="vt5gBoRhvvpWVHh2N91A-212" value="" style="endArrow=none;html=1;rounded=0;fontStyle=2" parent="1" edge="1">
          <mxGeometry width="50" height="50" relative="1" as="geometry">
            <mxPoint x="2049.38" y="768" as="sourcePoint" />
            <mxPoint x="2049.38" y="698" as="targetPoint" />
          </mxGeometry>
        </mxCell>
        <mxCell id="vt5gBoRhvvpWVHh2N91A-214" value="" style="endArrow=none;html=1;rounded=0;fontStyle=2" parent="1" edge="1">
          <mxGeometry width="50" height="50" relative="1" as="geometry">
            <mxPoint x="2049" y="698" as="sourcePoint" />
            <mxPoint x="2345" y="697" as="targetPoint" />
          </mxGeometry>
        </mxCell>
        <mxCell id="vt5gBoRhvvpWVHh2N91A-215" value="" style="endArrow=none;html=1;rounded=0;fontStyle=2" parent="1" edge="1">
          <mxGeometry width="50" height="50" relative="1" as="geometry">
            <mxPoint x="2039.5700000000002" y="528" as="sourcePoint" />
            <mxPoint x="2039.5700000000002" y="458" as="targetPoint" />
          </mxGeometry>
        </mxCell>
        <mxCell id="vt5gBoRhvvpWVHh2N91A-216" value="" style="endArrow=none;html=1;rounded=0;fontStyle=2" parent="1" edge="1">
          <mxGeometry width="50" height="50" relative="1" as="geometry">
            <mxPoint x="2040" y="458" as="sourcePoint" />
            <mxPoint x="2345" y="458" as="targetPoint" />
          </mxGeometry>
        </mxCell>
        <mxCell id="vt5gBoRhvvpWVHh2N91A-217" value="" style="endArrow=none;html=1;rounded=0;fontStyle=2" parent="1" edge="1">
          <mxGeometry width="50" height="50" relative="1" as="geometry">
            <mxPoint x="2735" y="708" as="sourcePoint" />
            <mxPoint x="2735" y="648" as="targetPoint" />
          </mxGeometry>
        </mxCell>
        <mxCell id="vt5gBoRhvvpWVHh2N91A-218" value="" style="endArrow=none;html=1;rounded=0;fontStyle=2" parent="1" edge="1">
          <mxGeometry width="50" height="50" relative="1" as="geometry">
            <mxPoint x="2345" y="648" as="sourcePoint" />
            <mxPoint x="2735" y="648" as="targetPoint" />
          </mxGeometry>
        </mxCell>
        <mxCell id="vt5gBoRhvvpWVHh2N91A-219" value="" style="endArrow=none;html=1;rounded=0;entryX=0.5;entryY=0;entryDx=0;entryDy=0;fontStyle=2" parent="1" edge="1">
          <mxGeometry width="50" height="50" relative="1" as="geometry">
            <mxPoint x="2714.76" y="403" as="sourcePoint" />
            <mxPoint x="2714.76" y="468" as="targetPoint" />
          </mxGeometry>
        </mxCell>
        <mxCell id="vt5gBoRhvvpWVHh2N91A-220" value="" style="endArrow=none;html=1;rounded=0;fontStyle=2" parent="1" edge="1">
          <mxGeometry width="50" height="50" relative="1" as="geometry">
            <mxPoint x="2475" y="403" as="sourcePoint" />
            <mxPoint x="2715" y="403" as="targetPoint" />
          </mxGeometry>
        </mxCell>
        <mxCell id="vt5gBoRhvvpWVHh2N91A-221" value="" style="endArrow=none;html=1;rounded=0;fontStyle=2" parent="1" edge="1">
          <mxGeometry width="50" height="50" relative="1" as="geometry">
            <mxPoint x="2345" y="403" as="sourcePoint" />
            <mxPoint x="2715" y="403" as="targetPoint" />
          </mxGeometry>
        </mxCell>
        <mxCell id="vt5gBoRhvvpWVHh2N91A-224" value="" style="endArrow=open;html=1;rounded=0;endFill=0;fontSize=20;entryX=0.499;entryY=0.963;entryDx=0;entryDy=0;entryPerimeter=0;fontStyle=2" parent="1" edge="1">
          <mxGeometry width="50" height="50" relative="1" as="geometry">
            <mxPoint x="600" y="773" as="sourcePoint" />
            <mxPoint x="600" y="563" as="targetPoint" />
          </mxGeometry>
        </mxCell>
        <mxCell id="vt5gBoRhvvpWVHh2N91A-228" value="" style="endArrow=none;html=1;rounded=0;fontStyle=2" parent="1" edge="1">
          <mxGeometry width="50" height="50" relative="1" as="geometry">
            <mxPoint x="600" y="773" as="sourcePoint" />
            <mxPoint x="795" y="773" as="targetPoint" />
          </mxGeometry>
        </mxCell>
        <mxCell id="vt5gBoRhvvpWVHh2N91A-231" value="" style="endArrow=none;html=1;rounded=0;fontStyle=2" parent="1" edge="1">
          <mxGeometry width="50" height="50" relative="1" as="geometry">
            <mxPoint x="1645" y="1063" as="sourcePoint" />
            <mxPoint x="1645" y="1002" as="targetPoint" />
          </mxGeometry>
        </mxCell>
        <mxCell id="vt5gBoRhvvpWVHh2N91A-232" value="" style="endArrow=open;html=1;rounded=0;endFill=0;fontSize=20;fontStyle=2" parent="1" edge="1">
          <mxGeometry width="50" height="50" relative="1" as="geometry">
            <mxPoint x="1085" y="983" as="sourcePoint" />
            <mxPoint x="1084" y="860.53" as="targetPoint" />
          </mxGeometry>
        </mxCell>
        <mxCell id="vt5gBoRhvvpWVHh2N91A-233" value="" style="endArrow=none;html=1;rounded=0;fontStyle=2" parent="1" edge="1">
          <mxGeometry width="50" height="50" relative="1" as="geometry">
            <mxPoint x="1085" y="1002" as="sourcePoint" />
            <mxPoint x="1645" y="1002" as="targetPoint" />
          </mxGeometry>
        </mxCell>
        <mxCell id="vt5gBoRhvvpWVHh2N91A-235" value="" style="endArrow=none;html=1;rounded=0;fontStyle=2" parent="1" edge="1">
          <mxGeometry width="50" height="50" relative="1" as="geometry">
            <mxPoint x="585" y="1064" as="sourcePoint" />
            <mxPoint x="585" y="917" as="targetPoint" />
          </mxGeometry>
        </mxCell>
        <mxCell id="vt5gBoRhvvpWVHh2N91A-236" value="" style="endArrow=none;html=1;rounded=0;fontStyle=2" parent="1" edge="1">
          <mxGeometry width="50" height="50" relative="1" as="geometry">
            <mxPoint x="585" y="917" as="sourcePoint" />
            <mxPoint x="1085" y="917" as="targetPoint" />
          </mxGeometry>
        </mxCell>
        <mxCell id="vt5gBoRhvvpWVHh2N91A-237" value="" style="endArrow=none;html=1;rounded=0;exitX=0.491;exitY=-0.001;exitDx=0;exitDy=0;exitPerimeter=0;fontStyle=2" parent="1" source="vt5gBoRhvvpWVHh2N91A-160" edge="1">
          <mxGeometry width="50" height="50" relative="1" as="geometry">
            <mxPoint x="1085" y="1703" as="sourcePoint" />
            <mxPoint x="1085" y="983" as="targetPoint" />
          </mxGeometry>
        </mxCell>
        <mxCell id="vt5gBoRhvvpWVHh2N91A-238" value="" style="endArrow=open;html=1;rounded=0;endFill=0;fontSize=20;entryX=0.499;entryY=0.963;entryDx=0;entryDy=0;entryPerimeter=0;fontStyle=2" parent="1" edge="1">
          <mxGeometry width="50" height="50" relative="1" as="geometry">
            <mxPoint x="2544" y="1993" as="sourcePoint" />
            <mxPoint x="2544" y="1783" as="targetPoint" />
          </mxGeometry>
        </mxCell>
        <mxCell id="vt5gBoRhvvpWVHh2N91A-241" value="" style="endArrow=none;html=1;rounded=0;exitX=1;exitY=0.686;exitDx=0;exitDy=0;exitPerimeter=0;fontStyle=2" parent="1" source="vt5gBoRhvvpWVHh2N91A-161" edge="1">
          <mxGeometry width="50" height="50" relative="1" as="geometry">
            <mxPoint x="1965" y="1992" as="sourcePoint" />
            <mxPoint x="2545" y="1993" as="targetPoint" />
          </mxGeometry>
        </mxCell>
        <mxCell id="vt5gBoRhvvpWVHh2N91A-242" value="" style="endArrow=none;html=1;rounded=0;exitX=0.491;exitY=-0.001;exitDx=0;exitDy=0;exitPerimeter=0;fontStyle=2" parent="1" edge="1">
          <mxGeometry width="50" height="50" relative="1" as="geometry">
            <mxPoint x="2085" y="1992.5" as="sourcePoint" />
            <mxPoint x="2085" y="1352" as="targetPoint" />
          </mxGeometry>
        </mxCell>
        <mxCell id="vt5gBoRhvvpWVHh2N91A-243" value="" style="endArrow=none;html=1;rounded=0;fontStyle=2" parent="1" edge="1">
          <mxGeometry width="50" height="50" relative="1" as="geometry">
            <mxPoint x="1935" y="1352" as="sourcePoint" />
            <mxPoint x="2085" y="1352" as="targetPoint" />
          </mxGeometry>
        </mxCell>
        <mxCell id="vt5gBoRhvvpWVHh2N91A-245" value="" style="endArrow=none;html=1;rounded=0;fontStyle=2" parent="1" edge="1">
          <mxGeometry width="50" height="50" relative="1" as="geometry">
            <mxPoint x="1085" y="963" as="sourcePoint" />
            <mxPoint x="2545" y="963" as="targetPoint" />
          </mxGeometry>
        </mxCell>
        <mxCell id="vt5gBoRhvvpWVHh2N91A-246" value="" style="endArrow=none;html=1;rounded=0;exitX=0.525;exitY=0;exitDx=0;exitDy=0;exitPerimeter=0;fontStyle=2" parent="1" source="vt5gBoRhvvpWVHh2N91A-165" edge="1">
          <mxGeometry width="50" height="50" relative="1" as="geometry">
            <mxPoint x="2495" y="1013" as="sourcePoint" />
            <mxPoint x="2545" y="963" as="targetPoint" />
          </mxGeometry>
        </mxCell>
        <mxCell id="vt5gBoRhvvpWVHh2N91A-247" value="" style="endArrow=open;html=1;rounded=0;endFill=0;fontSize=20;entryX=0.499;entryY=0.963;entryDx=0;entryDy=0;entryPerimeter=0;fontStyle=2" parent="1" edge="1">
          <mxGeometry width="50" height="50" relative="1" as="geometry">
            <mxPoint x="1074" y="643" as="sourcePoint" />
            <mxPoint x="1074" y="543" as="targetPoint" />
          </mxGeometry>
        </mxCell>
        <mxCell id="vt5gBoRhvvpWVHh2N91A-249" value="" style="endArrow=open;html=1;rounded=0;endFill=0;fontSize=20;entryX=-0.004;entryY=0.381;entryDx=0;entryDy=0;entryPerimeter=0;fontStyle=2" parent="1" edge="1">
          <mxGeometry width="50" height="50" relative="1" as="geometry">
            <mxPoint x="1395" y="844" as="sourcePoint" />
            <mxPoint x="1924.0000000000005" y="843.72" as="targetPoint" />
          </mxGeometry>
        </mxCell>
        <mxCell id="vt5gBoRhvvpWVHh2N91A-250" value="" style="endArrow=open;html=1;rounded=0;endFill=0;fontSize=20;fontStyle=2" parent="1" edge="1">
          <mxGeometry width="50" height="50" relative="1" as="geometry">
            <mxPoint x="1705" y="587" as="sourcePoint" />
            <mxPoint x="1915" y="587.58" as="targetPoint" />
          </mxGeometry>
        </mxCell>
        <mxCell id="vt5gBoRhvvpWVHh2N91A-251" value="" style="endArrow=none;html=1;rounded=0;fontStyle=2" parent="1" edge="1">
          <mxGeometry width="50" height="50" relative="1" as="geometry">
            <mxPoint x="1705" y="753" as="sourcePoint" />
            <mxPoint x="1705" y="587" as="targetPoint" />
          </mxGeometry>
        </mxCell>
        <mxCell id="vt5gBoRhvvpWVHh2N91A-252" value="" style="endArrow=none;html=1;rounded=0;entryX=1;entryY=0.018;entryDx=0;entryDy=0;entryPerimeter=0;fontStyle=2" parent="1" target="vt5gBoRhvvpWVHh2N91A-147" edge="1">
          <mxGeometry width="50" height="50" relative="1" as="geometry">
            <mxPoint x="1705" y="753" as="sourcePoint" />
            <mxPoint x="1615" y="683" as="targetPoint" />
          </mxGeometry>
        </mxCell>
        <mxCell id="vt5gBoRhvvpWVHh2N91A-254" value="" style="endArrow=open;html=1;rounded=0;endFill=0;fontSize=20;fontStyle=2" parent="1" edge="1">
          <mxGeometry width="50" height="50" relative="1" as="geometry">
            <mxPoint x="1565" y="273" as="sourcePoint" />
            <mxPoint x="2225" y="273.05000000000007" as="targetPoint" />
          </mxGeometry>
        </mxCell>
        <mxCell id="vt5gBoRhvvpWVHh2N91A-255" value="" style="endArrow=none;html=1;rounded=0;fontStyle=2" parent="1" edge="1">
          <mxGeometry width="50" height="50" relative="1" as="geometry">
            <mxPoint x="1395" y="713" as="sourcePoint" />
            <mxPoint x="1565" y="713" as="targetPoint" />
          </mxGeometry>
        </mxCell>
        <mxCell id="vt5gBoRhvvpWVHh2N91A-256" value="" style="endArrow=none;html=1;rounded=0;fontStyle=2" parent="1" edge="1">
          <mxGeometry width="50" height="50" relative="1" as="geometry">
            <mxPoint x="1565" y="713" as="sourcePoint" />
            <mxPoint x="1565" y="273" as="targetPoint" />
          </mxGeometry>
        </mxCell>
        <mxCell id="vt5gBoRhvvpWVHh2N91A-257" value="" style="endArrow=open;html=1;rounded=0;endFill=0;fontSize=20;fontStyle=2" parent="1" edge="1">
          <mxGeometry width="50" height="50" relative="1" as="geometry">
            <mxPoint x="1935" y="1183" as="sourcePoint" />
            <mxPoint x="2185" y="1183" as="targetPoint" />
          </mxGeometry>
        </mxCell>
        <mxCell id="vt5gBoRhvvpWVHh2N91A-258" value="" style="endArrow=open;html=1;rounded=0;endFill=0;fontSize=20;fontStyle=2" parent="1" edge="1">
          <mxGeometry width="50" height="50" relative="1" as="geometry">
            <mxPoint x="1715" y="1793" as="sourcePoint" />
            <mxPoint x="1715" y="1793" as="targetPoint" />
          </mxGeometry>
        </mxCell>
        <mxCell id="vt5gBoRhvvpWVHh2N91A-261" value="" style="endArrow=open;html=1;rounded=0;endFill=0;fontSize=20;exitX=0.813;exitY=0.999;exitDx=0;exitDy=0;exitPerimeter=0;fontStyle=2" parent="1" edge="1">
          <mxGeometry width="50" height="50" relative="1" as="geometry">
            <mxPoint x="1598" y="1672.9980000000003" as="sourcePoint" />
            <mxPoint x="1598.33" y="2033.1599999999999" as="targetPoint" />
          </mxGeometry>
        </mxCell>
        <mxCell id="vt5gBoRhvvpWVHh2N91A-262" value="" style="endArrow=open;html=1;rounded=0;endFill=0;fontSize=20;entryX=-0.01;entryY=0;entryDx=0;entryDy=0;entryPerimeter=0;exitX=0.999;exitY=0.918;exitDx=0;exitDy=0;exitPerimeter=0;fontStyle=2" parent="1" edge="1">
          <mxGeometry width="50" height="50" relative="1" as="geometry">
            <mxPoint x="1384.4099999999999" y="2089.2999999999997" as="sourcePoint" />
            <mxPoint x="1474.5000000000002" y="2089" as="targetPoint" />
          </mxGeometry>
        </mxCell>
        <mxCell id="vt5gBoRhvvpWVHh2N91A-263" value="" style="endArrow=none;html=1;rounded=0;fontStyle=2" parent="1" edge="1">
          <mxGeometry width="50" height="50" relative="1" as="geometry">
            <mxPoint x="1935" y="1083" as="sourcePoint" />
            <mxPoint x="3125" y="1083" as="targetPoint" />
          </mxGeometry>
        </mxCell>
        <mxCell id="vt5gBoRhvvpWVHh2N91A-264" value="" style="endArrow=none;html=1;rounded=0;fontStyle=2" parent="1" edge="1">
          <mxGeometry width="50" height="50" relative="1" as="geometry">
            <mxPoint x="3125" y="1083" as="sourcePoint" />
            <mxPoint x="3125" y="503" as="targetPoint" />
          </mxGeometry>
        </mxCell>
        <mxCell id="vt5gBoRhvvpWVHh2N91A-265" value="" style="endArrow=open;html=1;rounded=0;endFill=0;fontSize=20;exitX=0.999;exitY=0.918;exitDx=0;exitDy=0;exitPerimeter=0;fontStyle=2" parent="1" edge="1">
          <mxGeometry width="50" height="50" relative="1" as="geometry">
            <mxPoint x="3125" y="502.9999999999998" as="sourcePoint" />
            <mxPoint x="2925" y="503" as="targetPoint" />
          </mxGeometry>
        </mxCell>
        <mxCell id="vt5gBoRhvvpWVHh2N91A-266" value="" style="endArrow=open;html=1;rounded=0;endFill=0;fontSize=20;fontStyle=2" parent="1" edge="1">
          <mxGeometry width="50" height="50" relative="1" as="geometry">
            <mxPoint x="795" y="1913" as="sourcePoint" />
            <mxPoint x="705" y="1913" as="targetPoint" />
          </mxGeometry>
        </mxCell>
        <mxCell id="vt5gBoRhvvpWVHh2N91A-267" value="" style="endArrow=none;html=1;rounded=0;fontStyle=2" parent="1" edge="1">
          <mxGeometry width="50" height="50" relative="1" as="geometry">
            <mxPoint x="1385" y="1883" as="sourcePoint" />
            <mxPoint x="2935" y="1883" as="targetPoint" />
          </mxGeometry>
        </mxCell>
        <mxCell id="vt5gBoRhvvpWVHh2N91A-268" value="" style="endArrow=open;html=1;rounded=0;endFill=0;fontSize=20;entryX=0.499;entryY=0.963;entryDx=0;entryDy=0;entryPerimeter=0;fontStyle=2" parent="1" edge="1">
          <mxGeometry width="50" height="50" relative="1" as="geometry">
            <mxPoint x="2935" y="1883" as="sourcePoint" />
            <mxPoint x="2935" y="839" as="targetPoint" />
          </mxGeometry>
        </mxCell>
        <mxCell id="vt5gBoRhvvpWVHh2N91A-272" value="" style="endArrow=open;html=1;rounded=0;endFill=0;fontSize=20;entryX=0.499;entryY=0.963;entryDx=0;entryDy=0;entryPerimeter=0;fontStyle=2" parent="1" edge="1">
          <mxGeometry width="50" height="50" relative="1" as="geometry">
            <mxPoint x="284" y="823" as="sourcePoint" />
            <mxPoint x="283.82" y="689" as="targetPoint" />
          </mxGeometry>
        </mxCell>
        <mxCell id="vt5gBoRhvvpWVHh2N91A-273" value="" style="endArrow=none;html=1;rounded=0;fontStyle=2" parent="1" edge="1">
          <mxGeometry width="50" height="50" relative="1" as="geometry">
            <mxPoint x="785" y="823" as="sourcePoint" />
            <mxPoint x="285" y="823" as="targetPoint" />
          </mxGeometry>
        </mxCell>
        <mxCell id="vt5gBoRhvvpWVHh2N91A-274" value="" style="endArrow=none;html=1;rounded=0;fontStyle=2" parent="1" edge="1">
          <mxGeometry width="50" height="50" relative="1" as="geometry">
            <mxPoint x="495" y="1063" as="sourcePoint" />
            <mxPoint x="495" y="823" as="targetPoint" />
          </mxGeometry>
        </mxCell>
      </root>
    </mxGraphModel>
  </diagram>
</mxfile>
